PathFileType	4	(X/Y/Z)	markers.trc
DataRate	CameraRate	NumFrames	NumMarkers	Units	OrigDataRate	OrigDataStartFrame	OrigNumFrames
59.94	59.94	23	12	m	59.94	1	507
Frame#	Time	LEFT_SHOULDER			RIGHT_SHOULDER			LEFT_HIP			RIGHT_HIP			LEFT_KNEE			RIGHT_KNEE			LEFT_ANKLE			RIGHT_ANKLE			LEFT_HEEL			RIGHT_HEEL			LEFT_FOOT_INDEX			RIGHT_FOOT_INDEX		
		X1	Y1	Z1	X2	Y2	Z2	X3	Y3	Z3	X4	Y4	Z4	X5	Y5	Z5	X6	Y6	Z6	X7	Y7	Z7	X8	Y8	Z8	X9	Y9	Z9	X10	Y10	Z10	X11	Y11	Z11	X12	Y12	Z12

1	0.000000	6.918242	2.031412	0.000000	7.340976	1.999159	0.000000	7.033723	2.605276	0.000000	7.272761	2.598128	0.000000	7.057149	3.015297	0.000000	7.270006	3.041255	0.000000	7.134937	3.414544	0.000000	7.345788	3.490594	0.000000	7.183692	3.483284	0.000000	7.369149	3.553905	0.000000	6.944254	3.506159	0.000000	7.227760	3.599794	0.000000
2	0.016683	6.920753	2.030252	0.000000	7.341173	1.998091	0.000000	7.033732	2.607004	0.000000	7.273247	2.600053	0.000000	7.054268	3.017270	0.000000	7.271838	3.043351	0.000000	7.135078	3.411883	0.000000	7.346844	3.490045	0.000000	7.183985	3.481580	0.000000	7.371236	3.553955	0.000000	6.945689	3.504718	0.000000	7.226473	3.599658	0.000000
3	0.033367	6.923211	2.028889	0.000000	7.341372	1.996879	0.000000	7.033751	2.608465	0.000000	7.273799	2.601712	0.000000	7.050270	3.018829	0.000000	7.273715	3.045361	0.000000	7.134964	3.408694	0.000000	7.347989	3.489406	0.000000	7.184181	3.479349	0.000000	7.373365	3.553973	0.000000	6.947025	3.503176	0.000000	7.225074	3.599505	0.000000
4	0.050050	6.925570	2.027216	0.000000	7.341564	1.995447	0.000000	7.033797	2.609513	0.000000	7.274481	2.602984	0.000000	7.044161	3.019633	0.000000	7.275665	3.047187	0.000000	7.134255	3.404628	0.000000	7.349283	3.488627	0.000000	7.184107	3.476160	0.000000	7.375568	3.553932	0.000000	6.948039	3.501524	0.000000	7.223530	3.599330	0.000000
5	0.066733	6.927766	2.025275	0.000000	7.341751	1.993821	0.000000	7.033882	2.610141	0.000000	7.275325	2.603901	0.000000	7.035390	3.019490	0.000000	7.277676	3.048734	0.000000	7.132642	3.399672	0.000000	7.350752	3.487708	0.000000	7.183606	3.471825	0.000000	7.377853	3.553809	0.000000	6.948520	3.499873	0.000000	7.221928	3.599135	0.000000
6	0.083417	6.929704	2.023222	0.000000	7.341924	1.992092	0.000000	7.034016	2.610429	0.000000	7.276301	2.604581	0.000000	7.023937	3.018368	0.000000	7.279684	3.049936	0.000000	7.129909	3.394107	0.000000	7.352366	3.486682	0.000000	7.182549	3.466422	0.000000	7.380195	3.553597	0.000000	6.948268	3.498366	0.000000	7.220408	3.598930	0.000000
7	0.100100	6.931308	2.021228	0.000000	7.342058	1.990345	0.000000	7.034202	2.610488	0.000000	7.277315	2.605165	0.000000	7.010272	3.016362	0.000000	7.281610	3.050787	0.000000	7.125986	3.388325	0.000000	7.354030	3.485612	0.000000	7.180849	3.460189	0.000000	7.382512	3.553304	0.000000	6.947068	3.497085	0.000000	7.219052	3.598729	0.000000
8	0.116783	6.932565	2.019418	0.000000	7.342089	1.988632	0.000000	7.034440	2.610432	0.000000	7.278263	2.605768	0.000000	6.995170	3.013634	0.000000	7.283412	3.051331	0.000000	7.120934	3.382636	0.000000	7.355610	3.484592	0.000000	7.178444	3.453418	0.000000	7.384673	3.552968	0.000000	6.944657	3.496019	0.000000	7.217849	3.598543	0.000000
9	0.133467	6.933513	2.017873	0.000000	7.341915	1.986978	0.000000	7.034734	2.610350	0.000000	7.279075	2.606446	0.000000	6.979465	3.010336	0.000000	7.285098	3.051642	0.000000	7.114826	3.377235	0.000000	7.356987	3.483729	0.000000	7.175220	3.446415	0.000000	7.386558	3.552655	0.000000	6.940650	3.495105	0.000000	7.216717	3.598384	0.000000
10	0.150150	6.934199	2.016644	0.000000	7.341386	1.985385	0.000000	7.035081	2.610293	0.000000	7.279711	2.607170	0.000000	6.963854	3.006607	0.000000	7.286686	3.051781	0.000000	7.107620	3.372272	0.000000	7.358087	3.483089	0.000000	7.170908	3.439548	0.000000	7.388118	3.552438	0.000000	6.934501	3.494268	0.000000	7.215555	3.598259	0.000000
11	0.166833	6.934648	2.015749	0.000000	7.340321	1.983836	0.000000	7.035457	2.610262	0.000000	7.280139	2.607834	0.000000	6.948848	3.002620	0.000000	7.288171	3.051782	0.000000	7.099115	3.367920	0.000000	7.358892	3.482680	0.000000	7.165040	3.433272	0.000000	7.389368	3.552373	0.000000	6.925631	3.493453	0.000000	7.214272	3.598173	0.000000
12	0.183517	6.934835	2.015150	0.000000	7.338524	1.982305	0.000000	7.035796	2.610223	0.000000	7.280307	2.608318	0.000000	6.934808	2.998572	0.000000	7.289525	3.051653	0.000000	7.089001	3.364353	0.000000	7.359420	3.482458	0.000000	7.156996	3.428071	0.000000	7.390363	3.552491	0.000000	6.913700	3.492641	0.000000	7.212816	3.598123	0.000000
13	0.200200	6.934679	2.014767	0.000000	7.335808	1.980781	0.000000	7.035975	2.610123	0.000000	7.280122	2.608539	0.000000	6.922000	2.994650	0.000000	7.290720	3.051390	0.000000	7.076946	3.361684	0.000000	7.359718	3.482364	0.000000	7.146107	3.424327	0.000000	7.391158	3.552790	0.000000	6.898762	3.491850	0.000000	7.211194	3.598104	0.000000
14	0.216883	6.934040	2.014508	0.000000	7.332032	1.979273	0.000000	7.035814	2.609920	0.000000	7.279440	2.608477	0.000000	6.910615	2.991042	0.000000	7.291734	3.050997	0.000000	7.062682	3.359965	0.000000	7.359848	3.482341	0.000000	7.131820	3.422247	0.000000	7.391798	3.553229	0.000000	6.881223	3.491131	0.000000	7.209452	3.598106	0.000000
15	0.233567	6.932733	2.014300	0.000000	7.327114	1.977811	0.000000	7.035091	2.609605	0.000000	7.278082	2.608173	0.000000	6.900745	2.987954	0.000000	7.292532	3.050484	0.000000	7.046059	3.359212	0.000000	7.359870	3.482342	0.000000	7.113885	3.421906	0.000000	7.392320	3.553739	0.000000	6.861641	3.490538	0.000000	7.207665	3.598119	0.000000
16	0.250250	6.930571	2.014110	0.000000	7.321027	1.976432	0.000000	7.033558	2.609214	0.000000	7.275851	2.607724	0.000000	6.892317	2.985563	0.000000	7.293061	3.049860	0.000000	7.027060	3.359421	0.000000	7.359834	3.482338	0.000000	7.092476	3.423336	0.000000	7.392757	3.554262	0.000000	6.840457	3.490100	0.000000	7.205932	3.598133	0.000000
17	0.266933	6.927425	2.013940	0.000000	7.313824	1.975170	0.000000	7.030966	2.608820	0.000000	7.272558	2.607252	0.000000	6.885058	2.983923	0.000000	7.293259	3.049102	0.000000	7.005777	3.360564	0.000000	7.359773	3.482313	0.000000	7.068138	3.426541	0.000000	7.393131	3.554778	0.000000	6.817828	3.489806	0.000000	7.204370	3.598139	0.000000
18	0.283617	6.923267	2.013802	0.000000	7.305629	1.974067	0.000000	7.027086	2.608499	0.000000	7.268027	2.606864	0.000000	6.878570	2.982953	0.000000	7.293081	3.048168	0.000000	6.982383	3.362584	0.000000	7.359703	3.482265	0.000000	7.041598	3.431434	0.000000	7.393452	3.555308	0.000000	6.793676	3.489607	0.000000	7.203065	3.598127	0.000000
19	0.300300	6.918160	2.013698	0.000000	7.296595	1.973171	0.000000	7.021768	2.608297	0.000000	7.262143	2.606616	0.000000	6.872478	2.982489	0.000000	7.292510	3.047042	0.000000	6.957118	3.365384	0.000000	7.359625	3.482202	0.000000	7.013510	3.437771	0.000000	7.393735	3.555902	0.000000	6.767857	3.489427	0.000000	7.202058	3.598092	0.000000
20	0.316983	6.912213	2.013615	0.000000	7.286823	1.972522	0.000000	7.015023	2.608220	0.000000	7.254916	2.606515	0.000000	6.866502	2.982365	0.000000	7.291550	3.045779	0.000000	6.930268	3.368816	0.000000	7.359532	3.482135	0.000000	6.984286	3.445145	0.000000	7.393992	3.556617	0.000000	6.740284	3.489148	0.000000	7.201350	3.598033	0.000000
21	0.333667	6.905517	2.013528	0.000000	7.276323	1.972131	0.000000	7.007021	2.608245	0.000000	7.246488	2.606527	0.000000	6.860415	2.982456	0.000000	7.290207	3.044530	0.000000	6.902137	3.372676	0.000000	7.359407	3.482075	0.000000	6.954089	3.453026	0.000000	7.394234	3.557492	0.000000	6.710971	3.488607	0.000000	7.200914	3.597953	0.000000
22	0.350350	6.898072	2.013409	0.000000	7.265065	1.971978	0.000000	6.998009	2.608326	0.000000	7.237076	2.606589	0.000000	6.853982	2.982685	0.000000	7.288459	3.043479	0.000000	6.872998	3.376732	0.000000	7.359235	3.482029	0.000000	6.922953	3.460815	0.000000	7.394462	3.558529	0.000000	6.680059	3.487580	0.000000	7.200703	3.597865	0.000000
23	0.367033	6.889756	2.013234	0.000000	7.253026	1.972038	0.000000	6.988268	2.608403	0.000000	7.226939	2.606615	0.000000	6.846989	2.983011	0.000000	7.286225	3.042753	0.000000	6.843110	3.380767	0.000000	7.358993	3.482003	0.000000	6.890940	3.467953	0.000000	7.394674	3.559686	0.000000	6.647910	3.485802	0.000000	7.200670	3.597782	0.000000
